<svg width="21" height="21" viewBox="0 0 21 21" fill="none" xmlns="http://www.w3.org/2000/svg">
<path d="M5.5359 13.3137L5.00557 12.7834C4.9381 12.8508 4.88413 12.9306 4.84654 13.0183L5.5359 13.3137ZM8.36433 16.1421L8.65977 16.8315C8.74747 16.7939 8.82719 16.7399 8.89466 16.6725L8.36433 16.1421ZM6.06623 13.844L15.9657 3.94454L14.9051 2.88388L5.00557 12.7834L6.06623 13.844ZM4.84654 13.0183L4.42228 14.0082L5.801 14.5991L6.22526 13.6091L4.84654 13.0183ZM17.7335 5.71231L7.834 15.6118L8.89466 16.6725L18.7942 6.77297L17.7335 5.71231ZM8.06889 15.4528L7.07894 15.877L7.66982 17.2558L8.65977 16.8315L8.06889 15.4528ZM17.7335 3.94454C18.2216 4.4327 18.2216 5.22416 17.7335 5.71231L18.7942 6.77297C19.8681 5.69903 19.8681 3.95783 18.7942 2.88388L17.7335 3.94454ZM18.7942 2.88388C17.7202 1.80994 15.979 1.80994 14.9051 2.88388L15.9657 3.94454C16.4539 3.45639 17.2453 3.45639 17.7335 3.94454L18.7942 2.88388Z" fill="#EDEDED"/>
<path d="M3.41452 18.2635L2.72516 17.9681C2.60436 18.25 2.66734 18.577 2.88419 18.7938C3.10105 19.0107 3.42808 19.0737 3.70996 18.9529L3.41452 18.2635ZM6.2252 13.6092C6.38837 13.2285 6.212 12.7876 5.83128 12.6244C5.45056 12.4612 5.00965 12.6376 4.84648 13.0183L6.2252 13.6092ZM8.65971 16.8316C9.04043 16.6684 9.21679 16.2275 9.05363 15.8468C8.89046 15.466 8.44955 15.2897 8.06883 15.4528L8.65971 16.8316ZM4.10388 18.559L6.2252 13.6092L4.84648 13.0183L2.72516 17.9681L4.10388 18.559ZM8.06883 15.4528L3.11908 17.5742L3.70996 18.9529L8.65971 16.8316L8.06883 15.4528Z" fill="#EDEDED"/>
<path d="M5.53589 13.3137L8.36432 16.1421" stroke="#EDEDED" stroke-width="1.5"/>
<path d="M14.0212 4.82837L16.8497 7.6568" stroke="#EDEDED" stroke-width="1.5"/>
</svg>
